<?xml version="1.0" encoding="utf-8"?>
<!-- Generator: Adobe Illustrator 23.0.3, SVG Export Plug-In . SVG Version: 6.00 Build 0)  -->
<svg version="1.1" id="Layer_1" xmlns="http://www.w3.org/2000/svg" xmlns:xlink="http://www.w3.org/1999/xlink" x="0px" y="0px"
	 viewBox="0 0 148 148" style="enable-background:new 0 0 148 148;" xml:space="preserve">
<style type="text/css">
	.st0{fill:url(#SVGID_1_);}
	.st1{fill:url(#SVGID_2_);}
	.st2{fill:url(#SVGID_3_);}
	.st3{fill:url(#SVGID_4_);}
	.st4{fill:url(#SVGID_5_);}
	.st5{fill:url(#SVGID_6_);}
	.st6{fill:url(#SVGID_7_);}
	.st7{fill:url(#SVGID_8_);}
	.st8{fill:url(#SVGID_9_);}
	.st9{fill:url(#SVGID_10_);}
	.st10{fill:url(#SVGID_11_);}
	.st11{fill:url(#SVGID_12_);}
	.st12{fill:url(#SVGID_13_);}
	.st13{fill:url(#SVGID_14_);}
	.st14{fill:url(#SVGID_15_);}
	.st15{fill:url(#SVGID_16_);}
	.st16{fill:url(#SVGID_17_);}
	.st17{fill:url(#SVGID_18_);}
	.st18{fill:url(#SVGID_19_);}
	.st19{fill:url(#SVGID_20_);}
	.st20{fill:#010101;}
	.st21{fill:url(#SVGID_21_);}
	.st22{fill:url(#SVGID_22_);}
	.st23{fill:url(#SVGID_23_);}
	.st24{fill:url(#SVGID_24_);}
	.st25{fill:url(#SVGID_25_);}
	.st26{fill:url(#SVGID_26_);}
	.st27{fill:#FF462E;}
	.st28{fill:url(#SVGID_27_);}
	.st29{fill:url(#SVGID_28_);}
	.st30{fill:url(#SVGID_29_);}
	.st31{fill:url(#SVGID_30_);}
	.st32{fill:url(#SVGID_31_);}
	.st33{fill:url(#SVGID_32_);}
	.st34{fill:url(#SVGID_33_);}
	.st35{fill:url(#SVGID_34_);}
	.st36{fill:url(#SVGID_35_);}
	.st37{fill:url(#SVGID_36_);}
	.st38{fill:url(#SVGID_37_);}
	.st39{fill:url(#SVGID_38_);}
	.st40{fill:url(#SVGID_39_);}
	.st41{fill:#EFEFEF;}
	.st42{fill:#FFB70D;}
	.st43{fill:#FF3100;}
	.st44{fill:#FFCC01;}
	.st45{fill:#FF3600;}
	.st46{fill:#DF2A00;}
	.st47{fill:#FC3100;}
	.st48{fill:#DF2901;}
	.st49{fill:url(#SVGID_40_);}
	.st50{fill:url(#SVGID_41_);}
	.st51{fill:url(#SVGID_42_);}
	.st52{fill:url(#SVGID_43_);}
	.st53{fill:url(#SVGID_44_);}
	.st54{fill:url(#SVGID_45_);}
	.st55{fill:url(#SVGID_46_);}
	.st56{fill:url(#SVGID_47_);}
	.st57{fill:#F46F24;}
	.st58{fill:#EF2F3E;}
	.st59{fill:#28A54A;}
	.st60{fill:#27B0C3;}
	.st61{fill:#494C55;}
	.st62{fill:#71BD43;}
	.st63{fill:#F05924;}
	.st64{fill:url(#SVGID_48_);}
	.st65{fill:#F24C8A;}
	.st66{fill:#D9D9D9;}
	.st67{fill:#7DD2F0;}
	.st68{fill:#EEE25C;}
	.st69{fill:#464655;}
	.st70{fill:#61B9D9;}
	.st71{fill:#FF6B58;}
	.st72{fill:#FFCE6E;}
	.st73{fill:#F4432C;}
	.st74{fill:#6B6B82;}
	.st75{fill:#B9E578;}
</style>
<g>
	<path d="M76.2,87.3c-2.8,0-4.1,1.8-4.1,4.6c0,3.8,0,7.6,0,11.5c0,4.2,0,8.3,0,12.5c0,2.8,1.4,4.6,4.1,4.6c2.7,0,4.1-1.8,4.1-4.6
		c0-8,0-15.9,0-23.9C80.3,89.1,79,87.3,76.2,87.3z"/>
	<path d="M101.1,120.3c2.7,0.1,4.2-1.6,4.2-4.4c0-8.1,0-16.3,0-24.4c0-2.5-1.4-4.2-3.9-4.2c-2.8-0.1-4.2,1.6-4.2,4.4c0,4,0,8,0,12
		c0,4,0,8,0,12C97.1,118.4,98.4,120.2,101.1,120.3z"/>
	<path d="M55.3,104.1c0-4,0-8,0-12c0-2.9-1.1-5-4.3-4.9c-2.9,0.1-3.9,2-3.9,4.7c0,7.8,0,15.6,0,23.4c0,2.9,1.2,5,4.3,4.9
		c3-0.1,4-2.3,4-5.2C55.2,111.5,55.3,107.8,55.3,104.1z"/>
	<path d="M140,62.1c-1-5-4.4-8.7-9.7-8.3c-5.6,0.4-8.8-2.4-12.3-5.9c-9.7-9.9-19.5-19.6-29.3-29.4c-2.1-2.1-4.4-3.6-6.9-1.3
		c-2.9,2.6-1.2,5,1,7.2c3.2,3.2,6.4,6.4,9.5,9.5c6.3,6.2,12.6,12.5,19.6,19.4c-24.3,0-47.3,0-72.1,0c3.8-3.6,6.7-6.1,9.4-8.8
		c7-6.9,13.9-13.9,20.8-20.8c2-2,2.8-4.3,0.5-6.5c-2.1-1.9-4.3-1.3-6.2,0.5c-0.9,0.8-1.6,1.6-2.5,2.5c-9.5,9.5-19.2,19-28.5,28.7
		c-3.1,3.2-6,5-10.7,4.8c-5.7-0.2-9.2,3.1-10.3,8.3c-1.4,7.1,0.3,13.6,5.2,15.3c3.7,1.3,4.1,3.7,4.5,6.7c2.1,13,4.2,25.9,6.4,38.9
		c1.9,11.1,5.8,14.3,17.2,14.3c20.7,0,41.3,0,62,0c12.1,0,16.1-3.7,17.6-15.5c1.7-13.2,3.8-26.3,5.6-39.5c0.3-2.4,1.1-3.6,3.5-4.5
		C139.6,75.5,141.5,69.6,140,62.1z M127.4,70.5c-12.2-0.2-24.3,0-36.5-0.1c-3,0-6.1,0.2-6.1,4c0,3.8,2.9,4.2,6,4.2
		c10.5-0.1,21,0,32.1,0c-2.2,15.3-4.4,30.1-6.5,45c-0.5,3.7-2.2,5.2-5.9,5.1c-22.5-0.1-45-0.1-67.5,0c-3.7,0-5.4-1.5-6-5.1
		c-2.2-13.6-4.5-27.2-6.9-40.8c-0.5-3-0.2-4.4,3.5-4.3c8.7,0.3,17.3,0.1,26,0.1c3.3,0,8,1.1,7.9-4.2c-0.1-5.3-4.8-3.9-8.1-3.9
		c-11.5-0.1-23-0.2-34.5,0c-3.5,0.1-4.7-1-4.7-4.6c0-3.6,1.7-4,4.6-4c34.1,0.1,68.3,0.1,102.4,0c3,0,4.6,0.6,4.6,4.1
		C132.1,69.6,130.8,70.6,127.4,70.5z"/>
</g>
</svg>
